<svg xmlns="http://www.w3.org/2000/svg" version="1.1" xmlns:xlink="http://www.w3.org/1999/xlink" xmlns:svgjs="http://svgjs.com/svgjs" width="40" height="40" x="0" y="0" viewBox="0 0 512 512" style="enable-background:new 0 0 512 512" xml:space="preserve" class=""><g><path d="M35.973 229.074a5 5 0 0 1-9.946-1.041c5.042-48.198 27.647-92.606 63.653-125.042 36.006-32.437 82.524-50.3 130.986-50.3 67.105 0 129.348 34.449 165.101 90.625l4.448-14.866a4.998 4.998 0 0 1 6.223-3.356 5 5 0 0 1 3.357 6.224l-7.708 25.765a4.697 4.697 0 0 1-.146.418l-.001.003a.069.069 0 0 1-.003.008l-.002.006-.001.004a.03.03 0 0 1-.004.01v.002a4.985 4.985 0 0 1-2.487 2.633 5.055 5.055 0 0 1-2.457.475l-26.458-1.235a5 5 0 0 1-4.762-5.228c.128-2.759 2.468-4.908 5.228-4.761l17.306.808c-33.762-54.219-93.344-87.532-157.632-87.532-95.372-.003-174.773 71.526-184.695 166.38zM486 324.316c0 74.436-60.558 134.993-134.993 134.993-27.903 0-53.855-8.51-75.399-23.07a195.426 195.426 0 0 1-54.783 7.818c-24.855 0-49.697-4.702-73.001-14.043-37.963-15.216-70.35-42.173-92.256-76.55l-4.449 14.87a4.995 4.995 0 0 1-6.223 3.357 5 5 0 0 1-3.357-6.223l7.708-25.764a4.98 4.98 0 0 1 2.647-3.086 5.012 5.012 0 0 1 2.455-.474l26.459 1.235a5 5 0 0 1 4.762 5.228 5.005 5.005 0 0 1-5.228 4.761l-17.303-.807c42.313 67.855 124.81 101.265 202.381 82.068-17.875-14.692-31.916-33.881-40.39-55.818-1.406.048-2.813.076-4.221.076-5.263 0-10.537-.333-15.757-.997-9.87-1.255-17.161-9.387-17.335-19.335-.158-8.987-4.962-16.955-12.85-21.313-7.887-4.357-17.188-4.185-24.881.467-8.535 5.157-19.312 3.3-25.626-4.422a125.321 125.321 0 0 1-18.451-30.623c-3.876-9.19-.484-19.588 8.067-24.723 7.706-4.628 12.207-12.77 12.041-21.779-.167-9.01-4.965-16.98-12.837-21.32-8.714-4.805-12.495-15.051-8.991-24.363a124.283 124.283 0 0 1 17.291-31.353c6.024-7.945 16.724-10.198 25.441-5.361 7.864 4.366 17.169 4.193 24.893-.46 7.723-4.653 12.224-12.8 12.04-21.791-.204-9.97 6.79-18.375 16.629-19.987a124.25 124.25 0 0 1 35.8-.633c9.87 1.255 17.161 9.387 17.335 19.336.158 8.987 4.961 16.954 12.849 21.313s17.189 4.184 24.882-.467c8.538-5.16 19.313-3.298 25.626 4.422a125.673 125.673 0 0 1 14.057 21.305 135.53 135.53 0 0 1 19.974-1.48C425.443 189.323 486 249.88 486 324.316zm-264.365 38.562a134.587 134.587 0 0 1-5.621-38.563 134.89 134.89 0 0 1 3.428-30.288c-15.406-.417-29.775-8.595-37.892-22.067-6.295-10.449-8.145-22.724-5.208-34.563s10.309-21.826 20.758-28.121a45.58 45.58 0 0 1 37.972-4.217 45.664 45.664 0 0 1 24.737 19.821c16.915-15.527 37.786-26.808 60.91-32.129a115.6 115.6 0 0 0-11.485-16.924c-3.131-3.829-8.477-4.751-12.712-2.192-10.79 6.521-23.833 6.77-34.89.661-11.056-6.109-17.79-17.282-18.011-29.89-.087-4.936-3.703-8.97-8.599-9.592a114.33 114.33 0 0 0-32.921.581c-4.881.8-8.35 4.97-8.249 9.914.258 12.613-6.051 24.038-16.877 30.561s-23.875 6.763-34.907.639c-4.323-2.398-9.632-1.281-12.62 2.659a114.327 114.327 0 0 0-15.9 28.833c-1.738 4.619.138 9.701 4.46 12.084 11.042 6.089 17.774 17.264 18.007 29.894s-6.081 24.045-16.891 30.536c-4.242 2.548-5.925 7.705-4.002 12.264a115.32 115.32 0 0 0 16.979 28.181c3.132 3.828 8.479 4.75 12.711 2.192 10.791-6.522 23.833-6.77 34.89-.661s17.79 17.283 18.012 29.891c.087 4.935 3.703 8.969 8.599 9.591 5.076.644 10.206.942 15.322.905zm30.797-130.685a35.677 35.677 0 0 0-20.518-17.645 35.596 35.596 0 0 0-29.653 3.293c-8.161 4.917-13.919 12.718-16.212 21.965-2.294 9.247-.85 18.834 4.067 26.995a35.668 35.668 0 0 0 32.041 17.223c6.128-19.558 16.6-37.209 30.275-51.831zM476 324.316c0-68.922-56.072-124.993-124.993-124.993s-124.993 56.071-124.993 124.993 56.072 124.993 124.993 124.993S476 393.238 476 324.316zm-56.887-43.923v68.34c0 37.554-30.552 68.105-68.105 68.105s-68.105-30.552-68.105-68.105v-33.188c-.03-4.646 1.785-9.065 5.11-12.412 3.341-3.363 7.785-5.215 12.511-5.215 2.728 0 5.313.623 7.621 1.735v-38.731c-.03-4.646 1.785-9.066 5.111-12.413 3.341-3.363 7.784-5.215 12.51-5.215 2.917 0 5.671.713 8.097 1.973.739-3.082 2.321-5.93 4.635-8.259 3.341-3.362 7.784-5.214 12.51-5.214 8.288 0 15.257 5.752 17.128 13.473a17.519 17.519 0 0 1 8.114-1.973c9.716 0 17.621 7.905 17.621 17.622v3.582a17.546 17.546 0 0 1 7.621-1.726c9.716 0 17.621 7.905 17.621 17.621zm-10 0c0-4.202-3.419-7.621-7.622-7.621a7.592 7.592 0 0 0-5.417 2.263c-1.408 1.417-2.188 3.269-2.204 5.225V301.493a5 5 0 1 1-10 0v-40.577c0-4.203-3.419-7.622-7.621-7.622a7.59 7.59 0 0 0-5.417 2.263c-1.408 1.417-2.188 3.269-2.204 5.225v40.711a5 5 0 1 1-10 0V249.416c0-4.202-3.419-7.621-7.621-7.621a7.59 7.59 0 0 0-5.417 2.263c-1.435 1.443-2.217 3.337-2.205 5.333V301.493a5 5 0 1 1-10 0v-40.576c0-4.203-3.418-7.622-7.621-7.622a7.59 7.59 0 0 0-5.417 2.263c-1.434 1.443-2.217 3.338-2.204 5.333v77.396a5 5 0 1 1-10 0V315.54c0-4.202-3.419-7.621-7.621-7.621a7.59 7.59 0 0 0-5.417 2.263c-1.434 1.443-2.217 3.337-2.204 5.332v33.221c0 32.039 26.066 58.105 58.105 58.105s58.105-26.066 58.105-58.105v-68.342z" fill="#000000" data-original="#000000"></path></g></svg>